<?xml version="1.0" encoding="iso-8859-1"?>
<svg version="1.1" id="Layer_1" xmlns="http://www.w3.org/2000/svg" xmlns:xlink="http://www.w3.org/1999/xlink" x="0px" y="0px"
	 viewBox="0 0 512 512" style="enable-background:new 0 0 512 512;" xml:space="preserve">
<polygon style="fill:#F7B239;" points="371.801,44.962 371.801,431.383 104.554,431.383 68.901,431.383 68.901,9.309 371.801,9.309 
	"/>
<polygon style="fill:#9AD14B;" points="443.106,80.615 443.106,502.688 140.207,502.688 140.207,467.036 407.454,467.036 
	407.454,80.615 "/>
<polygon style="fill:#F95428;" points="407.454,80.615 407.454,467.036 140.207,467.036 104.554,467.036 104.554,431.383 
	371.801,431.383 371.801,44.962 407.454,44.962 "/>
<g>
	<path style="fill:#FFFFFF;" d="M341.66,407.163c-5.143,0-9.31-4.169-9.31-9.31V80.677c0-5.142,4.167-9.31,9.31-9.31
		s9.31,4.169,9.31,9.31v317.176C350.97,402.995,346.803,407.163,341.66,407.163z"/>
	<circle style="fill:#FFFFFF;" cx="341.656" cy="50.263" r="9.31"/>
</g>
<g>
	<path style="fill:#333333;" d="M443.103,71.306H416.76V44.963c0-5.142-4.167-9.31-9.31-9.31h-26.342V9.31
		c0-5.142-4.167-9.31-9.31-9.31h-302.9c-5.143,0-9.31,4.169-9.31,9.31v422.074c0,5.142,4.167,9.31,9.31,9.31H95.24v26.342
		c0,5.142,4.167,9.31,9.31,9.31h26.342v26.342c0,5.142,4.167,9.31,9.31,9.31h302.9c5.143,0,9.31-4.169,9.31-9.31V80.616
		C452.413,75.474,448.246,71.306,443.103,71.306z M78.208,18.621h284.279v403.453H78.208V18.621z M113.861,440.694h257.937
		c5.143,0,9.31-4.169,9.31-9.31V54.274h17.033v403.453H113.862v-17.032H113.861z M433.792,493.379H149.513v-17.032H407.45
		c5.143,0,9.31-4.169,9.31-9.31V89.926h17.032V493.379z"/>
	<path style="fill:#333333;" d="M169.404,114.213h101.887c5.143,0,9.31-4.169,9.31-9.31s-4.167-9.31-9.31-9.31H169.404
		c-5.143,0-9.31,4.169-9.31,9.31S164.261,114.213,169.404,114.213z"/>
	<path style="fill:#333333;" d="M313.448,141.771h-186.2c-5.143,0-9.31,4.169-9.31,9.31s4.167,9.31,9.31,9.31h186.2
		c5.143,0,9.31-4.169,9.31-9.31S318.59,141.771,313.448,141.771z"/>
	<path style="fill:#333333;" d="M313.448,187.948h-186.2c-5.143,0-9.31,4.169-9.31,9.31s4.167,9.31,9.31,9.31h186.2
		c5.143,0,9.31-4.169,9.31-9.31S318.59,187.948,313.448,187.948z"/>
	<path style="fill:#333333;" d="M313.448,234.125h-186.2c-5.143,0-9.31,4.169-9.31,9.31s4.167,9.31,9.31,9.31h186.2
		c5.143,0,9.31-4.169,9.31-9.31S318.59,234.125,313.448,234.125z"/>
	<path style="fill:#333333;" d="M313.448,280.303h-186.2c-5.143,0-9.31,4.169-9.31,9.31s4.167,9.31,9.31,9.31h186.2
		c5.143,0,9.31-4.169,9.31-9.31S318.59,280.303,313.448,280.303z"/>
	<path style="fill:#333333;" d="M313.448,326.48h-186.2c-5.143,0-9.31,4.169-9.31,9.31s4.167,9.31,9.31,9.31h186.2
		c5.143,0,9.31-4.169,9.31-9.31S318.59,326.48,313.448,326.48z"/>
</g>
</svg>
